<mxfile host="app.diagrams.net" agent="Mozilla/5.0 (Windows NT 10.0; Win64; x64) AppleWebKit/537.36 (KHTML, like Gecko) Chrome/138.0.0.0 Safari/537.36" version="28.0.6">
  <diagram id="C5RBs43oDa-KdzZeNtuy" name="Page-1">
    <mxGraphModel dx="1427" dy="866" grid="1" gridSize="10" guides="1" tooltips="1" connect="1" arrows="1" fold="1" page="1" pageScale="1" pageWidth="827" pageHeight="1169" math="0" shadow="0">
      <root>
        <mxCell id="WIyWlLk6GJQsqaUBKTNV-0" />
        <mxCell id="WIyWlLk6GJQsqaUBKTNV-1" parent="WIyWlLk6GJQsqaUBKTNV-0" />
        <mxCell id="D3sgHbUryomEpGRaU22N-13" style="edgeStyle=orthogonalEdgeStyle;rounded=1;orthogonalLoop=1;jettySize=auto;html=1;exitX=0.5;exitY=1;exitDx=0;exitDy=0;entryX=0;entryY=0.5;entryDx=0;entryDy=0;curved=0;" edge="1" parent="WIyWlLk6GJQsqaUBKTNV-1" source="D3sgHbUryomEpGRaU22N-0" target="D3sgHbUryomEpGRaU22N-6">
          <mxGeometry relative="1" as="geometry" />
        </mxCell>
        <mxCell id="D3sgHbUryomEpGRaU22N-23" style="edgeStyle=orthogonalEdgeStyle;rounded=0;orthogonalLoop=1;jettySize=auto;html=1;exitX=0.5;exitY=1;exitDx=0;exitDy=0;entryX=0;entryY=0.5;entryDx=0;entryDy=0;" edge="1" parent="WIyWlLk6GJQsqaUBKTNV-1" source="D3sgHbUryomEpGRaU22N-0" target="D3sgHbUryomEpGRaU22N-2">
          <mxGeometry relative="1" as="geometry" />
        </mxCell>
        <mxCell id="D3sgHbUryomEpGRaU22N-0" value="DROPMUSE SYSTEM" style="rounded=0;whiteSpace=wrap;html=1;fillColor=#fff2cc;strokeColor=#d6b656;" vertex="1" parent="WIyWlLk6GJQsqaUBKTNV-1">
          <mxGeometry x="200" y="150" width="110" height="60" as="geometry" />
        </mxCell>
        <mxCell id="D3sgHbUryomEpGRaU22N-16" style="edgeStyle=orthogonalEdgeStyle;rounded=0;orthogonalLoop=1;jettySize=auto;html=1;exitX=0.5;exitY=1;exitDx=0;exitDy=0;entryX=0;entryY=0.75;entryDx=0;entryDy=0;" edge="1" parent="WIyWlLk6GJQsqaUBKTNV-1" source="D3sgHbUryomEpGRaU22N-2" target="D3sgHbUryomEpGRaU22N-4">
          <mxGeometry relative="1" as="geometry" />
        </mxCell>
        <mxCell id="D3sgHbUryomEpGRaU22N-17" style="edgeStyle=orthogonalEdgeStyle;rounded=0;orthogonalLoop=1;jettySize=auto;html=1;exitX=0.5;exitY=1;exitDx=0;exitDy=0;entryX=0;entryY=0.5;entryDx=0;entryDy=0;" edge="1" parent="WIyWlLk6GJQsqaUBKTNV-1" source="D3sgHbUryomEpGRaU22N-2" target="D3sgHbUryomEpGRaU22N-5">
          <mxGeometry relative="1" as="geometry" />
        </mxCell>
        <mxCell id="D3sgHbUryomEpGRaU22N-18" style="edgeStyle=orthogonalEdgeStyle;rounded=0;orthogonalLoop=1;jettySize=auto;html=1;exitX=0.5;exitY=1;exitDx=0;exitDy=0;entryX=0;entryY=0.5;entryDx=0;entryDy=0;" edge="1" parent="WIyWlLk6GJQsqaUBKTNV-1" source="D3sgHbUryomEpGRaU22N-2" target="D3sgHbUryomEpGRaU22N-3">
          <mxGeometry relative="1" as="geometry" />
        </mxCell>
        <mxCell id="D3sgHbUryomEpGRaU22N-19" style="edgeStyle=orthogonalEdgeStyle;rounded=1;orthogonalLoop=1;jettySize=auto;html=1;exitX=0.5;exitY=1;exitDx=0;exitDy=0;entryX=0;entryY=0.5;entryDx=0;entryDy=0;curved=0;" edge="1" parent="WIyWlLk6GJQsqaUBKTNV-1" source="D3sgHbUryomEpGRaU22N-2" target="D3sgHbUryomEpGRaU22N-10">
          <mxGeometry relative="1" as="geometry" />
        </mxCell>
        <mxCell id="D3sgHbUryomEpGRaU22N-2" value="ARTIST PORTAL" style="rounded=1;whiteSpace=wrap;html=1;fillColor=#f8cecc;strokeColor=#b85450;" vertex="1" parent="WIyWlLk6GJQsqaUBKTNV-1">
          <mxGeometry x="360" y="220" width="120" height="60" as="geometry" />
        </mxCell>
        <mxCell id="D3sgHbUryomEpGRaU22N-3" value="MUSIC UPLOAD" style="rounded=1;whiteSpace=wrap;html=1;fillColor=#dae8fc;strokeColor=#6c8ebf;" vertex="1" parent="WIyWlLk6GJQsqaUBKTNV-1">
          <mxGeometry x="520" y="300" width="120" height="60" as="geometry" />
        </mxCell>
        <mxCell id="D3sgHbUryomEpGRaU22N-4" value="METADATA MANAGEMENT" style="rounded=1;whiteSpace=wrap;html=1;fillColor=#dae8fc;strokeColor=#6c8ebf;" vertex="1" parent="WIyWlLk6GJQsqaUBKTNV-1">
          <mxGeometry x="520" y="390" width="120" height="60" as="geometry" />
        </mxCell>
        <mxCell id="D3sgHbUryomEpGRaU22N-5" value="DISTRIBUTION STATUS" style="rounded=1;whiteSpace=wrap;html=1;fillColor=#dae8fc;strokeColor=#6c8ebf;" vertex="1" parent="WIyWlLk6GJQsqaUBKTNV-1">
          <mxGeometry x="520" y="480" width="120" height="60" as="geometry" />
        </mxCell>
        <mxCell id="D3sgHbUryomEpGRaU22N-20" style="edgeStyle=orthogonalEdgeStyle;rounded=0;orthogonalLoop=1;jettySize=auto;html=1;exitX=0.5;exitY=1;exitDx=0;exitDy=0;entryX=0;entryY=0.5;entryDx=0;entryDy=0;" edge="1" parent="WIyWlLk6GJQsqaUBKTNV-1" source="D3sgHbUryomEpGRaU22N-6" target="D3sgHbUryomEpGRaU22N-7">
          <mxGeometry relative="1" as="geometry" />
        </mxCell>
        <mxCell id="D3sgHbUryomEpGRaU22N-21" style="edgeStyle=orthogonalEdgeStyle;rounded=0;orthogonalLoop=1;jettySize=auto;html=1;exitX=0.5;exitY=1;exitDx=0;exitDy=0;entryX=0;entryY=0.5;entryDx=0;entryDy=0;" edge="1" parent="WIyWlLk6GJQsqaUBKTNV-1" source="D3sgHbUryomEpGRaU22N-6" target="D3sgHbUryomEpGRaU22N-8">
          <mxGeometry relative="1" as="geometry" />
        </mxCell>
        <mxCell id="D3sgHbUryomEpGRaU22N-22" style="edgeStyle=orthogonalEdgeStyle;rounded=1;orthogonalLoop=1;jettySize=auto;html=1;exitX=0.5;exitY=1;exitDx=0;exitDy=0;entryX=0;entryY=0.5;entryDx=0;entryDy=0;curved=0;" edge="1" parent="WIyWlLk6GJQsqaUBKTNV-1" source="D3sgHbUryomEpGRaU22N-6" target="D3sgHbUryomEpGRaU22N-9">
          <mxGeometry relative="1" as="geometry" />
        </mxCell>
        <mxCell id="D3sgHbUryomEpGRaU22N-6" value="ADMIN PANEL" style="rounded=1;whiteSpace=wrap;html=1;fillColor=#f8cecc;strokeColor=#b85450;" vertex="1" parent="WIyWlLk6GJQsqaUBKTNV-1">
          <mxGeometry x="360" y="640" width="120" height="60" as="geometry" />
        </mxCell>
        <mxCell id="D3sgHbUryomEpGRaU22N-7" value="SUBMISSION REVIEW" style="rounded=1;whiteSpace=wrap;html=1;fillColor=#d5e8d4;strokeColor=#82b366;" vertex="1" parent="WIyWlLk6GJQsqaUBKTNV-1">
          <mxGeometry x="520" y="715" width="120" height="60" as="geometry" />
        </mxCell>
        <mxCell id="D3sgHbUryomEpGRaU22N-8" value="USER MANAGEMENT" style="rounded=1;whiteSpace=wrap;html=1;fillColor=#d5e8d4;strokeColor=#82b366;" vertex="1" parent="WIyWlLk6GJQsqaUBKTNV-1">
          <mxGeometry x="520" y="805" width="120" height="60" as="geometry" />
        </mxCell>
        <mxCell id="D3sgHbUryomEpGRaU22N-9" value="ANALYTICS DASHBOARD" style="rounded=1;whiteSpace=wrap;html=1;fillColor=#d5e8d4;strokeColor=#82b366;" vertex="1" parent="WIyWlLk6GJQsqaUBKTNV-1">
          <mxGeometry x="520" y="895" width="120" height="60" as="geometry" />
        </mxCell>
        <mxCell id="D3sgHbUryomEpGRaU22N-10" value="ANALYTICS" style="rounded=1;whiteSpace=wrap;html=1;fillColor=#dae8fc;strokeColor=#6c8ebf;" vertex="1" parent="WIyWlLk6GJQsqaUBKTNV-1">
          <mxGeometry x="520" y="570" width="120" height="60" as="geometry" />
        </mxCell>
      </root>
    </mxGraphModel>
  </diagram>
</mxfile>
